Patient4_TMGait_0pt3_02_left_06_EMG.mot
version=1
nRows=26
nColumns=33
inDegrees=no
endheader
time	1LAddLong	2LGlutMax	3LGlutMed	4LIliopsoas	5LSemiMemb	6LBicFemLong	7LRecFem	8LVastMed	9LVastLat	10LGasMed	11LTibAnt	12lTibPost	13LPeroneusLong	14LSol	15LExtDigLong	16LFlexDigLong	17RAddLong	18RGlutMax	19RGlutMed	20RIliopsoas	21RSemiMemb	22RBicFemLong	23RRecFem	24RVastMed	25RVastLat	26RGasMed	27RTibAnt	28RTibPost	29RPeroneusLong	30RSol	31RExtDigLong	32RFlexDigLong
13.578	-0.000763	-0.013123	-0.018311	0.0177	-0.008392	-0.009766	0.01297	0.002747	0.013733	-0.006561	0.012054	-0.018463	-0.036621	-0.001831	-0.094299	0.010223	-0.016632	0.034943	-0.94376	-0.01709	-0.044708	-0.019226	0.26245	-0.23117	0.15076	0.001831	-0.02655	0.000305	0.07019	0.36484	-0.001526	-0.010223
13.579	-0.000458	-0.00061	-0.055084	0.006866	0.000916	-0.015564	0.048218	0.009155	0.018463	-0.017548	-0.027313	-0.016632	0.003967	0.047302	0.004272	0.002747	-0.043945	0.041046	-0.89722	-0.028381	0.024414	-0.041351	0.11032	-0.31998	-0.00351	-0.002289	-0.010223	-0.002899	-0.14282	0.2478	0	-0.012665
13.58	-0.000916	0.002594	-0.063171	-0.010681	-0.007019	-0.003967	0.096436	0.00061	0.000763	-0.03067	-0.16327	-0.019836	0.076447	0.049286	-0.18509	0.007172	-0.019226	0.056763	0.43808	-0.077972	0.003815	-0.060272	0.047607	-0.29312	0.008392	-0.008698	-0.00885	-0.00061	-0.012817	0.18188	-0.005646	-0.008545
13.581	0.002899	0.002899	-0.062714	-0.019836	0.000458	0.00412	0.13825	0.002899	-0.02594	-0.013733	-0.11124	-0.018311	0.055389	-0.028992	-0.37994	-0.002747	0.001221	-0.036163	1.0345	-0.024261	-0.09613	-0.055389	-0.168	-0.11322	0.094299	0.003204	0.009766	-0.000916	0.19241	0.088043	-0.002441	-0.015106
13.582	0.001068	0.007477	-0.089111	-0.007172	-0.003815	0.02594	0.16388	0.005035	-0.028992	0.015564	-0.054474	-0.014191	0.010529	-0.049438	-0.023499	-0.005951	0.049133	-0.06073	0.33325	-0.024109	-0.02533	-0.063019	-0.49469	0.88028	0.23483	-0.003052	0.013733	-0.00351	0.16342	0.005493	0.002594	-0.007629
13.583	0.001831	-0.010986	-0.068512	0.015411	-0.009155	0.05188	0.15823	0.005951	-0.036621	0.014191	-0.04776	-0.021515	-0.008087	-0.018005	-0.085144	-0.000305	0.083618	0.045776	0.028687	-0.058136	0.049591	-0.076752	-0.64896	1.7241	0.29221	0.000916	0.017395	-0.000763	0.00946	-0.068054	-0.007324	-0.006866
13.584	0.002899	0.016937	-0.03418	0.032349	0	0.03418	0.12299	0.009308	-0.024567	0.011444	0.031586	-0.014954	-0.043793	-0.033417	-0.15839	0.002899	0.10407	0.069427	0.39032	-0.083313	-0.024872	0.048676	-0.56061	1.6721	0.40695	0.005035	0.024414	0.000916	-0.096893	-0.12756	-0.002899	-0.004578
13.585	-0.000153	0.010223	-0.015259	0.036621	-0.005341	0.037079	0.10162	0.002594	-0.018768	0.009613	0.11139	-0.009155	-0.063019	0.001831	-0.17059	0.015106	0.10651	0.15121	0.15289	-0.0737	0.024719	0.091095	-0.26657	1.3699	0.60501	0.006866	0.040283	-0.002289	0.059204	-0.15243	-0.003662	-0.006561
13.586	0.001526	0.020599	0.062561	0.023041	-0.004578	0.035858	0.067444	0.005493	-0.02182	-0.007629	-0.001068	-0.015411	0.004272	-0.02533	-0.016174	0.007172	0.088196	0.26779	0.019073	-0.065155	-0.32776	0.041656	-0.1268	0.4628	0.60608	0.003967	0.03067	-0.006104	0.29938	-0.14603	-0.008545	-0.001831
13.587	0.000305	0.025024	0.067596	-0.01709	0.001068	0.009918	0.055847	0.003052	-0.014954	-0.014191	0.000153	-0.019531	0.019379	-0.013275	-0.011749	-0.003815	0.069122	0.25223	1.0599	-0.089264	-0.3186	-0.070038	-0.2533	-0.11078	0.49286	0.001678	0.015259	-0.003815	0.22476	-0.090179	-0.002899	0.001678
13.588	-0.001984	-0.010986	0.049438	-0.017395	-0.006409	0.020599	0.018616	0.006409	-0.020142	-0.005798	-0.025787	-0.028381	0.000458	-0.05722	0.14618	0.001678	0.026703	0.24902	0.57587	-0.10407	-0.088501	-0.03418	-0.27298	-0.44571	0.39581	-0.000458	0.029602	-0.007782	0.024109	-0.10834	-0.00351	0.00351
13.589	0.004425	-0.008087	0.035095	-0.016174	-0.005493	0.018768	0.015564	0.007172	-0.016479	-0.006104	-0.11444	-0.009918	0.017853	-0.096893	0.8284	-0.003052	-0.017548	0.18127	0.23422	0.004272	0.032043	-0.042877	-0.34454	-0.54214	0.27359	0.000458	0.037079	-0.007782	-0.019531	-0.064392	-0.002136	-0.00412
13.59	0.002289	0.029144	0.00061	0.014801	-0.004578	0.030518	-0.037994	0.002289	-0.011139	0.002289	-0.096588	-0.011749	0.018005	-0.084839	-0.43945	0.003357	-0.097961	0.25436	0.09903	0.076141	0.1532	-0.034637	-0.27145	-0.17807	-0.18677	-0.002747	0.034332	-0.007477	0.20554	-0.028839	0.002899	0.002136
13.591	0.009308	0.067444	-0.003662	0.022583	-0.00946	0.037842	-0.11078	-0.003662	-0.020447	-0.002441	-0.092468	-0.020447	0.003052	-0.1384	-0.3096	0.005951	-0.066223	0.34607	0.001831	0.11337	-0.002441	-0.09079	-0.22263	0.51788	-0.43106	0.004425	0.03952	0.000305	0.11414	-0.065002	0.003052	-0.010681
13.592	0.000305	0.027618	-0.018005	0.010529	-0.003357	0.044861	-0.094299	0.004272	-0.021515	0.001831	-0.065918	-0.006714	0.013123	-0.1471	-0.18417	-0.002289	-0.065765	0.075378	-0.33234	0.08606	-0.004425	-0.11536	-0.24292	1.5361	-0.37262	0.003815	0.066986	0.00061	-0.54962	-0.072479	-0.000458	-0.003967
13.593	0.010376	0.025177	-0.015106	-0.014496	-0.002747	0.035553	-0.070953	0.003815	-0.01358	-0.007782	-0.005493	-0.015564	0.000305	-0.072174	-0.027008	-0.003052	-0.080261	-0.05188	-0.51224	0.067596	0.020294	-0.097198	-0.16251	0.93292	-0.2388	0.002136	0.052185	0.000305	-0.65567	-0.093079	-0.005798	-0.004578
13.594	0.003204	0.034637	0.006561	-0.001373	-0.009003	0.018921	-0.075073	0.004578	-0.019226	-0.007019	0.006866	-0.01236	-0.004883	-0.054169	-0.007019	-0.001373	-0.068512	-0.12528	0.38361	0.014801	0.056305	-0.082703	-0.060577	0.69534	-0.20081	0.008392	0.031586	-0.000916	-0.32303	-0.11215	-0.005035	-0.005798
13.595	0.00473	0.018005	0.018158	0.011597	0.000763	0.017548	-0.068665	0.004425	-0.016327	-0.005188	0.020905	-0.005188	-0.018921	-0.051117	-0.00351	0.001831	-0.043793	-0.19134	-0.052185	-0.028839	0.025635	-0.092621	0.03891	0.26032	0.12634	0.00351	0.065765	-0.003662	0.18051	-0.067291	-0.006866	-0.007172
13.596	0.00473	0.000763	0.029602	0.004272	-0.011749	0.037689	-0.061951	0.005493	-0.019836	0.006256	0.012817	-0.018616	-0.004883	-0.053406	0.13886	-0.005035	0.012207	-0.26093	-0.39841	-0.043793	-0.073547	-0.11261	0.069122	-0.46371	0.37445	-0.006561	0.06485	0.000305	-0.038452	-0.035706	-0.005798	-0.004883
13.597	0.005646	0.01358	0.027466	0.020447	-0.005188	0.039368	-0.054169	0.003052	-0.016327	0.010986	0.12466	-0.014801	-0.011139	-0.031738	0.21591	0.002747	0.045319	-0.25971	-0.47562	-0.023804	-0.15015	-0.15915	0.064545	-1.2599	0.48126	-0.007782	0.034943	-0.000305	0.46463	0.020447	-0.001373	-0.006714
13.598	-0.000916	0.018158	0.005646	0.010986	-0.006256	0.023193	-0.09552	0.002289	-0.018158	0.002747	-0.087128	-0.00946	-0.006409	-0.033417	0.059509	-0.005493	0.062256	-0.24231	-0.37705	-0.040741	-0.10025	-0.1532	-0.019226	-1.3048	0.52582	-0.009613	0.031281	-0.004578	0.5954	0.010529	0.000153	-0.002441
13.599	0.003662	0.041199	-0.014191	0.013123	-0.007782	0.042877	-0.046234	0.00824	-0.006866	-0.002899	-0.02182	-0.008545	0.006561	-0.00946	-0.007172	-0.006409	0.027924	-0.30853	-0.58548	-0.121	0.095978	-0.096283	-0.15106	-0.84854	0.46158	0.002747	-0.000916	-0.015106	0.43625	-0.02243	0.001221	-0.007782
13.6	0.006409	0.017853	-0.012665	-0.003967	-0.008698	0.027161	0.006104	0.002441	-0.002441	-0.012817	-0.018158	-0.009766	-0.018158	-0.007324	0.003204	-0.002136	0.003967	-0.22675	-0.49515	-0.06897	0.13687	-0.027313	-0.086212	-0.42618	0.46417	-0.006714	0.009308	-0.039825	0.14008	0.005646	0.004272	-0.009613
13.601	-0.000305	-0.001068	-0.013885	-0.001984	-0.002899	0.036621	0.00946	0.002289	-0.003052	0.008392	0.026398	-0.011444	-0.031128	-0.023041	0.01236	0.002136	0.019531	-0.17059	-0.24292	0.026398	-0.19043	-0.002899	0.13748	-0.21164	0.12253	0.001678	0.044098	-0.061493	-0.23178	-0.006866	-0.000458	-0.006866
13.602	0.007019	-0.008698	-0.014496	0.022888	-0.011749	0.027924	0.001831	0.003204	-0.013885	0.011139	0.003204	-0.006561	-0.032959	-0.028381	-0.022888	-0.018768	0.012817	-0.079346	-0.41565	0.1294	-0.065155	-0.036621	0.082092	0.2121	-0.33402	0.006409	0.058289	0.040894	-0.47257	-0.095215	-0.00061	-0.010376
13.603	0.005035	0.002136	-0.015411	0.043488	-0.008087	0.03418	0.008087	0.003815	-0.005035	-0.00473	0.093231	-0.013275	-0.028992	-0.03952	0.053101	0.004425	-0.041656	0.031281	-0.21072	0.20828	0.15869	-0.08316	0.20325	0.44205	-0.84351	0.003662	-0.022125	0.042572	-0.23514	-0.052795	-0.002594	-0.006256
